# xmcd
#
# Track frame offsets:
#	150
#	23626
#	42643
#	58338
#	80665
#	98220
#	118460
#	139500
#	164355
#	179757
#	195412
#	212747
#	228715
#	252352
#	269577
#	288005
#	305250
#
# Disc length: 4285 seconds
#
# Revision: 2
# Processed by: cddbd v1.5.2PL0 Copyright (c) Steve Scherf et al.
# Submitted via: EZCDAudioConverter 2.1.7.1
#
DISCID=0310bb11
DTITLE=The Buggles - The Age Of Plastic
DYEAR=1980
DGENRE=
TTITLE0=Living In The Plastic Age
TTITLE1=Video Killed The Radio-Star
TTITLE2=Kid Dynamo
TTITLE3=I Love You (Miss Robot)
TTITLE4=Clean, Clean
TTITLE5=Elstree
TTITLE6=Astroboy (And The Proles On Parade)
TTITLE7=Johnny On The Monorail
TTITLE8=Video Killed The Radio-Star [Single]
TTITLE9=Kid Dynamo [Single]
TTITLE10=The Plastic Age [Single]
TTITLE11=Island [Edit]
TTITLE12=Clean, Clean
TTITLE13=Technopop
TTITLE14=Elstree [Single]
TTITLE15=Johnny On The Monorail [A Very Different Version]
TTITLE16=Elstree [Special DJ Edit]
EXTD=
EXTT0=
EXTT1=
EXTT2=
EXTT3=
EXTT4=
EXTT5=
EXTT6=
EXTT7=
EXTT8=
EXTT9=
EXTT10=
EXTT11=
EXTT12=
EXTT13=
EXTT14=
EXTT15=
EXTT16=
PLAYORDER=
